HIERARCHY
ROOT Hips
{
	OFFSET -3.958830 18.904000 13.208200
	CHANNELS 6 Xposition Yposition Zposition Zrotation Yrotation Xrotation 
	JOINT LHipJoint
	{
		OFFSET 0.000000 0.000000 0.000000
		CHANNELS 3 Zrotation Yrotation Xrotation
		JOINT LeftUpLeg
		{
			OFFSET 1.800000 -1.400000 0.085000
			CHANNELS 3 Zrotation Yrotation Xrotation
			JOINT LeftLeg
			{
				OFFSET 2.215000 -6.000000 0.000000
				CHANNELS 3 Zrotation Yrotation Xrotation
				JOINT LeftFoot
				{
					OFFSET 2.500000 -6.900000 0.000000
					CHANNELS 3 Zrotation Yrotation Xrotation
					JOINT LeftToeBase
					{
						OFFSET 0.200000 -0.500000 1.950000
						CHANNELS 3 Zrotation Yrotation Xrotation
						End Site
						{
							OFFSET 0.000000 0.000000 0.000000
						}
					}
				}
			}
		}
	}
	JOINT RHipJoint
	{
		OFFSET 0.000000 0.000000 0.000000
		CHANNELS 3 Zrotation Yrotation Xrotation
		JOINT RightUpLeg
		{
			OFFSET -1.800000 -1.400000 0.085000
			CHANNELS 3 Zrotation Yrotation Xrotation
			JOINT RightLeg
			{
				OFFSET -2.215000 -6.000000 0.000000
				CHANNELS 3 Zrotation Yrotation Xrotation
				JOINT RightFoot
				{
					OFFSET -2.500000 -6.900000 0.000000
					CHANNELS 3 Zrotation Yrotation Xrotation
					JOINT RightToeBase
					{
						OFFSET -0.200000 -0.500000 1.950000
						CHANNELS 3 Zrotation Yrotation Xrotation
						End Site
						{
							OFFSET 0.000000 0.000000 0.000000
						}
					}
				}
			}
		}
	}
	JOINT LowerBack
	{
		OFFSET 0.000000 0.000000 0.000000
		CHANNELS 3 Zrotation Yrotation Xrotation
		JOINT Spine
		{
			OFFSET -0.087000 1.940000 -0.288900
			CHANNELS 3 Zrotation Yrotation Xrotation
			JOINT Spine1
			{
				OFFSET 0.000000 1.950000 0.060000
				CHANNELS 3 Zrotation Yrotation Xrotation
				JOINT Neck
				{
					OFFSET 0.000000 0.000000 0.000000
					CHANNELS 3 Zrotation Yrotation Xrotation
					JOINT Neck1
					{
						OFFSET 0.000000 1.600000 0.340000
						CHANNELS 3 Zrotation Yrotation Xrotation
						JOINT Head
						{
							OFFSET 0.000000 1.667000 -0.240000
							CHANNELS 3 Zrotation Yrotation Xrotation
							End Site
							{
								OFFSET 0.000000 0.000000 0.000000
							}
						}
					}
				}
				JOINT LeftShoulder
				{
					OFFSET 0.000000 0.000000 0.000000
					CHANNELS 3 Zrotation Yrotation Xrotation
					JOINT LeftArm
					{
						OFFSET 2.700000 1.550000 -0.730000
						CHANNELS 3 Zrotation Yrotation Xrotation
						JOINT LeftForeArm
						{
							OFFSET 5.450000 0.000000 0.000000
							CHANNELS 3 Zrotation Yrotation Xrotation
							JOINT LeftHand
							{
								OFFSET 3.450000 0.000000 0.000000
								CHANNELS 3 Zrotation Yrotation Xrotation
								JOINT LeftHandIndex1
								{
									OFFSET 0.750000 0.000000 0.000000
									CHANNELS 3 Zrotation Yrotation Xrotation
									End Site
									{
										OFFSET 0.000000 0.000000 0.000000
									}
								}
							}
						}
					}
				}
				JOINT RightShoulder
				{
					OFFSET 0.000000 0.000000 0.000000
					CHANNELS 3 Zrotation Yrotation Xrotation
					JOINT RightArm
					{
						OFFSET -2.700000 1.550000 -0.730000
						CHANNELS 3 Zrotation Yrotation Xrotation
						JOINT RightForeArm
						{
							OFFSET -5.450000 0.000000 0.000000
							CHANNELS 3 Zrotation Yrotation Xrotation
							JOINT RightHand
							{
								OFFSET -3.450000 0.000000 0.000000
								CHANNELS 3 Zrotation Yrotation Xrotation
								JOINT RightHandIndex1
								{
									OFFSET -0.750000 0.000000 0.000000
									CHANNELS 3 Zrotation Yrotation Xrotation
									End Site
									{
										OFFSET 0.000000 0.000000 0.000000
									}
								}
							}
						}
					}
				}
			}
		}
	}
}
MOTION
Frames: 12
Frame Time: 0.016667
-0.570680 17.553810 -0.766560 -7.524012 -28.654995 5.944843 -15.181411 11.690296 4.745615 11.544786 -5.205271 -36.080109 -19.312920 15.955864 36.675792 0.005058 9.251347 1.402428 0.561840 0.144070 0.331930 18.527252 -10.282186 2.496235 4.156198 -0.505134 0.679000 6.366402 -8.147805 27.476828 -0.780938 -5.777383 2.785568 0.209720 0.521760 0.167260 -4.049078 -1.237040 -7.771756 9.582134 1.386375 13.564646 -8.098830 3.994854 11.618616 0.997232 -8.744061 -9.152510 -21.032006 15.341924 38.942394 -2.941400 6.482100 -6.643590 -17.474514 -0.425685 1.682200 -28.101948 -1.368568 -0.753421 -105.616993 -61.437534 66.195199 -3.961042 3.321458 0.610470 0.307170 -0.228460 0.341420 14.529479 6.936145 5.796012 26.593437 0.565994 -3.434029 147.778439 56.978162 110.106310 1.629753 -1.778550 -0.375410 0.468770 0.003600 -0.276020 
-0.559760 17.536800 -0.769320 -7.254676 -29.058515 5.644061 -15.220262 11.622301 4.873548 12.092458 -5.278660 -36.735950 -20.150035 16.623639 37.426230 0.080085 9.538750 1.300155 0.573120 0.160340 0.349490 18.501137 -10.228673 2.467447 3.845344 -0.750084 1.472367 6.304129 -8.056122 26.560040 -0.793258 -5.709799 2.809665 0.205040 0.499170 0.169840 -3.967778 -1.288694 -7.851592 8.959534 1.611824 14.040985 -7.950561 4.312372 11.550046 1.078864 -8.682350 -9.297856 -21.122271 15.229928 39.379106 -3.112040 6.479580 -7.603590 -17.333757 -0.726306 1.621223 -27.604789 -1.799513 -0.734614 -104.202111 -61.358645 64.860779 -3.944234 3.305356 0.629010 0.287020 -0.200220 0.337350 14.239309 7.331521 5.990808 26.182179 0.407388 -3.624259 146.092648 57.174910 107.585251 1.655538 -1.739839 -0.362240 0.472630 -0.002940 -0.276990 
-0.532790 17.512380 -0.777300 -6.886765 -29.555155 5.066835 -15.269668 11.501212 5.089453 12.985542 -5.457142 -37.952591 -21.317813 17.592010 38.703842 0.170338 9.972716 1.133197 0.619660 0.212720 0.378740 18.472198 -10.137996 2.432665 3.167891 -1.188976 2.961690 6.543907 -7.991233 24.703104 -0.823978 -5.621985 2.833046 0.220030 0.453440 0.177920 -3.881591 -1.372942 -7.995089 8.257828 1.724562 15.264795 -7.889089 4.643594 11.177219 1.052390 -8.898310 -9.472692 -21.999584 15.398669 39.553091 -2.675300 6.072970 -9.624100 -17.948022 -1.603168 1.575443 -25.865453 -1.978393 -0.934672 -101.779465 -61.215551 62.536271 -3.905382 3.296743 0.671130 0.242440 -0.154100 0.336800 14.865694 8.518279 6.184966 23.733901 0.374443 -3.726607 142.881165 56.972174 102.469803 1.698332 -1.707880 -0.337990 0.472010 -0.016920 -0.279980 
-0.502970 17.479300 -0.774170 -6.584532 -30.193380 4.760095 -15.303588 11.381435 5.294906 13.745943 -5.620545 -39.467431 -21.786290 18.333437 40.107822 0.281967 10.301411 1.020160 0.643550 0.253780 0.379370 18.455683 -10.079464 2.394964 2.298480 -1.553589 4.202419 6.719879 -7.900447 22.987325 -0.841613 -5.543503 2.862545 0.222360 0.420080 0.166780 -3.841398 -1.402036 -8.120708 7.826255 1.813555 16.098736 -8.072564 4.903050 10.561390 1.070558 -9.122072 -9.890881 -22.924432 15.710961 39.727808 -1.791520 5.731990 -10.315790 -18.168172 -2.421724 1.768679 -24.483596 -1.662932 -1.188458 -97.960703 -60.672301 58.730141 -3.845804 3.317338 0.681390 0.199600 -0.121470 0.350680 15.078078 9.674832 6.547575 22.034330 0.062123 -3.904206 139.509972 57.201312 97.782470 1.763768 -1.677972 -0.311340 0.467100 -0.041650 -0.263050 
-0.466450 17.462420 -0.769820 -6.731108 -30.654516 4.512627 -15.294301 11.295341 5.425912 14.474684 -5.590222 -40.526380 -21.661392 18.497925 40.803694 0.315360 10.393532 0.976091 0.661650 0.280030 0.399330 18.467473 -10.079339 2.400026 1.709225 -1.784060 5.130382 7.012375 -7.949912 22.041814 -0.875769 -5.523264 2.866155 0.216140 0.371070 0.153860 -3.896761 -1.330245 -8.236432 8.127257 1.593620 17.389581 -8.883873 4.958133 9.770605 1.300191 -9.289647 -10.258813 -23.540740 15.767959 39.911676 -1.639560 5.545930 -11.614510 -18.471576 -3.148147 1.865255 -23.342721 -1.097291 -1.715322 -92.092954 -59.582981 52.891599 -3.771765 3.321980 0.710510 0.150070 -0.081060 0.347470 14.929311 10.577352 6.861987 21.274387 -0.100668 -4.290032 134.890412 57.769094 91.789463 1.842659 -1.614795 -0.292860 0.462810 -0.062000 -0.262570 
-0.440800 17.458490 -0.762360 -6.833097 -31.370605 4.315367 -15.280303 11.351651 5.406453 14.620579 -5.374666 -40.769527 -20.611802 17.761510 40.217318 0.203244 10.125620 1.040035 0.654500 0.254570 0.405390 18.461902 -10.131452 2.412846 1.096749 -1.798719 5.564474 7.104317 -7.997328 21.809588 -0.879118 -5.541935 2.842028 0.211940 0.351260 0.145870 -3.900489 -1.334761 -8.253843 7.921287 1.514369 18.240391 -9.281473 4.969273 9.057486 1.354338 -9.449818 -10.359578 -23.881923 16.134515 39.518849 -1.316250 5.625370 -11.954530 -18.788911 -3.269732 1.769070 -23.323658 -0.637487 -2.293397 -84.325034 -58.759492 46.282778 -3.729641 3.319664 0.743840 0.127020 -0.078600 0.330000 15.142176 10.850681 7.006293 21.510364 -0.394287 -4.733299 132.118770 58.632685 89.017266 1.879805 -1.554579 -0.312330 0.456440 -0.050700 -0.282610 
-0.424720 17.460530 -0.744030 -7.111487 -31.905615 4.844512 -15.255721 11.459959 5.259935 14.210827 -5.084435 -40.811384 -18.536836 16.162398 38.546150 0.006703 9.464474 1.233282 0.677670 0.274390 0.426520 18.468451 -10.214656 2.431427 0.918421 -1.706639 5.162344 7.135360 -7.974030 21.853985 -0.874106 -5.522244 2.826674 0.232720 0.344530 0.158850 -3.930518 -1.322645 -8.145887 7.799379 1.517403 17.616934 -9.539514 4.830209 8.916194 1.183691 -9.564252 -9.952891 -23.767652 16.257241 38.478262 -1.028800 5.695390 -12.472620 -19.127480 -2.736898 1.371054 -24.077628 -0.585011 -2.789596 -76.229143 -57.178124 39.432370 -3.704796 3.328409 0.746850 0.124870 -0.072740 0.326080 15.732161 10.240539 6.790701 22.451634 -0.732084 -5.019227 128.327716 59.624184 85.193046 1.914959 -1.509922 -0.308630 0.451710 -0.053560 -0.287710 
-0.412920 17.461810 -0.720080 -7.577847 -32.242316 5.951224 -15.248342 11.653183 5.032816 13.410880 -4.733060 -40.694922 -15.805286 13.982675 35.708608 -0.276865 8.501533 1.539907 0.657230 0.242020 0.402310 18.454407 -10.281255 2.462610 1.227124 -1.534517 4.146329 7.095641 -7.926849 22.217636 -0.827713 -5.493260 2.830105 0.239050 0.381630 0.169220 -3.876960 -1.432954 -7.984002 7.343273 1.623890 16.195547 -9.331271 4.658947 8.971023 1.098465 -9.487362 -9.517854 -22.897442 16.116892 36.997845 -0.780360 5.830700 -11.975920 -19.248834 -1.964911 0.993072 -26.090637 -0.420574 -3.395610 -67.522694 -55.168389 32.371507 -3.722634 3.312695 0.741510 0.160420 -0.110350 0.315480 16.035172 9.281909 6.682001 23.862355 -1.884402 -5.479589 126.329012 60.535674 83.491443 1.904025 -1.467315 -0.334810 0.453950 -0.018440 -0.298840 
-0.401200 17.471800 -0.688110 -7.917788 -32.395636 6.996000 -15.223129 11.932462 4.703977 12.112807 -4.334349 -39.701162 -13.038136 11.466033 31.203779 -0.569903 7.252279 2.011571 0.602330 0.170280 0.366020 18.437154 -10.394456 2.512114 1.451823 -1.364033 3.099617 6.793429 -7.766168 22.406454 -0.766119 -5.433619 2.858968 0.229320 0.477620 0.171380 -3.810919 -1.561425 -7.770824 6.679247 1.598265 14.721648 -9.114967 4.282448 8.863006 1.014777 -9.303023 -8.958580 -21.563615 16.072163 35.275790 -0.499460 6.212020 -10.791910 -19.629389 -1.050479 0.670923 -28.130999 0.271422 -4.072306 -60.351153 -52.921245 26.598337 -3.780646 3.245688 0.725700 0.223760 -0.165090 0.319580 16.642080 8.099757 6.399500 25.586771 -2.649762 -5.716944 123.556742 61.183210 80.592970 1.909579 -1.416848 -0.391160 0.502800 0.022700 -0.297430 
-0.385860 17.485790 -0.654850 -8.221414 -32.459461 8.197876 -15.204513 12.220628 4.354137 10.588824 -3.956282 -38.358868 -10.305055 8.991496 25.758456 -0.823654 5.880867 2.537577 0.580490 0.142690 0.347080 18.414158 -10.494698 2.553846 1.635396 -1.160907 1.835723 6.583669 -7.557744 22.363940 -0.697157 -5.351561 2.890114 0.241020 0.541740 0.179080 -3.724312 -1.717527 -7.533764 5.928421 1.536720 13.120632 -8.678602 3.855545 8.711621 0.886264 -9.183820 -8.262317 -20.424351 16.066062 33.246032 -0.658750 6.740470 -9.452190 -20.204773 0.085209 0.162265 -30.091017 0.808667 -4.637896 -52.886494 -49.193250 20.551571 -3.828994 3.209597 0.685150 0.284320 -0.215220 0.328250 17.528080 6.742310 6.071712 27.161595 -3.610473 -5.748280 121.316785 61.125124 77.512763 1.903469 -1.465522 -0.419440 0.514710 0.037000 -0.295200 
-0.369220 17.508950 -0.624440 -8.639947 -32.606186 9.249688 -15.178141 12.456650 4.052093 9.557365 -3.483982 -36.392792 -8.540880 6.979026 19.537458 -1.031282 4.711459 2.998281 0.576330 0.137060 0.334890 18.402417 -10.574263 2.585516 1.919546 -0.855321 0.511540 6.425007 -7.455949 22.972563 -0.659374 -5.310565 2.905203 0.262930 0.584840 0.183670 -3.684209 -1.837336 -7.347220 5.495028 1.316230 12.136361 -8.495802 3.400483 8.489030 0.726885 -9.238014 -7.708429 -19.884519 16.452764 31.345304 -0.616430 7.294710 -9.354390 -20.909571 1.107023 -0.232579 -31.637442 1.915984 -5.422418 -46.781133 -46.209292 16.063463 -3.860726 3.158873 0.677650 0.321350 -0.242330 0.336760 18.582610 5.581548 5.805616 28.873701 -4.773423 -6.072749 119.613624 60.918893 74.851032 1.881626 -1.501063 -0.447910 0.538420 0.051620 -0.299870 
-0.353740 17.515200 -0.580320 -8.629970 -32.946576 10.290510 -15.190347 12.589283 3.841469 8.346227 -3.341888 -34.460598 -7.145883 5.349777 13.648040 -1.165205 3.855234 3.350648 0.599480 0.171310 0.331900 18.378383 -10.601781 2.547140 1.812258 -0.543503 -0.761842 6.201507 -7.317650 23.447593 -0.625457 -5.277659 2.904327 0.304240 0.627730 0.210040 -3.602650 -1.947004 -7.141570 4.552889 1.251603 10.463073 -8.118090 3.060696 8.589927 0.436206 -9.228406 -7.008384 -19.183559 16.748715 29.236651 -0.374980 7.659260 -9.246920 -21.191657 2.487287 -0.660901 -33.098358 2.980063 -5.970727 -42.448062 -43.098948 12.782853 -3.905561 3.146783 0.644450 0.366850 -0.263440 0.352520 19.487111 4.111665 5.380174 30.224258 -6.029291 -6.167758 117.653733 60.310364 71.537460 1.846275 -1.598822 -0.448130 0.546130 0.053880 -0.289540 
